<svg xmlns="http://www.w3.org/2000/svg" width="48" height="48" viewBox="0 0 48 48">
    <path fill="none" stroke="currentColor" stroke-linecap="round" stroke-linejoin="round" stroke-width="2"
        d="M22.46 22.69A7.21 7.21 0 0 0 9.57 26.9a6.45 6.45 0 0 0-5.07 6.3c0 2.74 1.64 6.46 6.92 6.46h17a5.05 5.05 0 0 0 4.46-7.44" />
    <circle cx="30.41" cy="24.43" r="6.25" fill="none" stroke="currentColor" stroke-width="2"
        stroke-linecap="round" stroke-linejoin="round" />
    <path fill="none" stroke="currentColor" stroke-linecap="round" stroke-linejoin="round" stroke-width="2"
        d="M30.41 11.34v5.29m9.26-1.46l-3.74 3.74m7.57 5.52h-5.29m1.46 9.25l-3.74-3.74M21.16 15.17l3.74 3.74m-15.95-3.2v-4.77m-2.39 2.39h4.78M9 18.89c4.71-1.81 4.47-5.42 4.44-7.6V9.65A16.81 16.81 0 0 0 9 8.89a16.81 16.81 0 0 0-4.44.76s0 1.22 0 1.64c-.08 2.18-.32 5.79 4.44 7.6Z" />
</svg>